# xmcd
# 
# Track frame offsets:
#     150
#     6057
#     23325
#     39900
#     58453
#     78925
#     94958
#     114760
#     140513
#     160723
#     184800
#     207767
#     239288
#     265355
#     294068
# 
# Disc length: 4510
# 
# Revision: 5
# Processed by: cddbd v1.5.2PL0 Copyright (c) Steve Scherf et al.
# Submitted via: BonkEnc v1.0
# 
DISCID=ba119c0f
DTITLE=Limp Bizkit - Chocolate Starfish And The Hot Dog Flavored Water
DYEAR=2001
DGENRE=Nu Metal
TTITLE0=Intro
TTITLE1=Hot Dog
TTITLE2=My Generation
TTITLE3=Full Nelson
TTITLE4=My Way
TTITLE5=Rollin' (Air Raid Vehicle)
TTITLE6=Livin' It Up
TTITLE7=The One
TTITLE8=Getcha Groove On
TTITLE9=Take A Look Around
TTITLE10=It'll Be OK
TTITLE11=Boiler
TTITLE12=Hold On
TTITLE13=Rollin' (Urban Assault Vehicle)
TTITLE14=Outro
EXTD=
EXTT0=
EXTT1=
EXTT2=
EXTT3=
EXTT4=
EXTT5=
EXTT6=
EXTT7=
EXTT8=
EXTT9=
EXTT10=
EXTT11=
EXTT12=
EXTT13=
EXTT14=
PLAYORDER=
